<mxfile host="app.diagrams.net" modified="2021-08-31T06:10:17.047Z" agent="5.0 (Macintosh; Intel Mac OS X 10_15_5) AppleWebKit/537.36 (KHTML, like Gecko) Chrome/92.0.4515.159 Safari/537.36" etag="fqr2_c_G-oQsQjdSy0Ew" version="14.9.4" type="github">
  <diagram id="NyKh7jYhSJma8Dnq37jw" name="Page-1">
    <mxGraphModel dx="1298" dy="634" grid="1" gridSize="10" guides="1" tooltips="1" connect="1" arrows="1" fold="1" page="1" pageScale="1" pageWidth="827" pageHeight="1169" math="0" shadow="0">
      <root>
        <mxCell id="0" />
        <mxCell id="1" parent="0" />
        <mxCell id="RI50vxsG2orb1oKf74Yb-75" style="edgeStyle=orthogonalEdgeStyle;rounded=0;orthogonalLoop=1;jettySize=auto;html=1;fontSize=16;" edge="1" parent="1" source="RI50vxsG2orb1oKf74Yb-42">
          <mxGeometry relative="1" as="geometry">
            <mxPoint x="280" y="547" as="targetPoint" />
          </mxGeometry>
        </mxCell>
        <mxCell id="RI50vxsG2orb1oKf74Yb-42" value="Global User" style="rounded=0;whiteSpace=wrap;html=1;" vertex="1" parent="1">
          <mxGeometry x="110" y="517" width="100" height="60" as="geometry" />
        </mxCell>
        <mxCell id="RI50vxsG2orb1oKf74Yb-43" value="Local Browser" style="rounded=0;whiteSpace=wrap;html=1;" vertex="1" parent="1">
          <mxGeometry x="294" y="550" width="120" height="60" as="geometry" />
        </mxCell>
        <mxCell id="RI50vxsG2orb1oKf74Yb-44" value="Remote&amp;nbsp; Data Controll Collect" style="text;html=1;align=center;verticalAlign=middle;resizable=0;points=[];autosize=1;strokeColor=none;" vertex="1" parent="1">
          <mxGeometry x="170" y="320" width="170" height="20" as="geometry" />
        </mxCell>
        <mxCell id="RI50vxsG2orb1oKf74Yb-45" style="edgeStyle=orthogonalEdgeStyle;rounded=0;orthogonalLoop=1;jettySize=auto;html=1;" edge="1" parent="1" source="RI50vxsG2orb1oKf74Yb-46">
          <mxGeometry relative="1" as="geometry">
            <mxPoint x="350" y="530" as="targetPoint" />
          </mxGeometry>
        </mxCell>
        <mxCell id="RI50vxsG2orb1oKf74Yb-46" value="AWS CDN" style="rounded=0;whiteSpace=wrap;html=1;" vertex="1" parent="1">
          <mxGeometry x="290" y="420" width="120" height="60" as="geometry" />
        </mxCell>
        <mxCell id="RI50vxsG2orb1oKf74Yb-47" value="Singapore Server" style="rounded=0;whiteSpace=wrap;html=1;" vertex="1" parent="1">
          <mxGeometry x="550" y="525" width="120" height="60" as="geometry" />
        </mxCell>
        <mxCell id="RI50vxsG2orb1oKf74Yb-48" value="" style="endArrow=classic;html=1;" edge="1" parent="1">
          <mxGeometry width="50" height="50" relative="1" as="geometry">
            <mxPoint x="448.5" y="564.5" as="sourcePoint" />
            <mxPoint x="518.5" y="564.5" as="targetPoint" />
          </mxGeometry>
        </mxCell>
        <mxCell id="RI50vxsG2orb1oKf74Yb-49" value="" style="endArrow=classic;html=1;" edge="1" parent="1">
          <mxGeometry width="50" height="50" relative="1" as="geometry">
            <mxPoint x="518.5" y="584.5" as="sourcePoint" />
            <mxPoint x="448.5" y="584.5" as="targetPoint" />
          </mxGeometry>
        </mxCell>
        <mxCell id="RI50vxsG2orb1oKf74Yb-50" value="Singapore DB" style="rounded=0;whiteSpace=wrap;html=1;" vertex="1" parent="1">
          <mxGeometry x="811.5" y="525" width="120" height="60" as="geometry" />
        </mxCell>
        <mxCell id="RI50vxsG2orb1oKf74Yb-51" value="" style="endArrow=classic;html=1;" edge="1" parent="1">
          <mxGeometry width="50" height="50" relative="1" as="geometry">
            <mxPoint x="710" y="564.5" as="sourcePoint" />
            <mxPoint x="780" y="564.5" as="targetPoint" />
          </mxGeometry>
        </mxCell>
        <mxCell id="RI50vxsG2orb1oKf74Yb-52" value="" style="endArrow=classic;html=1;" edge="1" parent="1">
          <mxGeometry width="50" height="50" relative="1" as="geometry">
            <mxPoint x="780" y="584.5" as="sourcePoint" />
            <mxPoint x="710" y="584.5" as="targetPoint" />
          </mxGeometry>
        </mxCell>
        <mxCell id="RI50vxsG2orb1oKf74Yb-53" value="Static Resource" style="text;html=1;align=center;verticalAlign=middle;resizable=0;points=[];autosize=1;strokeColor=none;" vertex="1" parent="1">
          <mxGeometry x="360" y="490" width="100" height="20" as="geometry" />
        </mxCell>
        <mxCell id="RI50vxsG2orb1oKf74Yb-54" value="Activity Information" style="text;html=1;align=center;verticalAlign=middle;resizable=0;points=[];autosize=1;strokeColor=none;" vertex="1" parent="1">
          <mxGeometry x="423.5" y="540" width="120" height="20" as="geometry" />
        </mxCell>
        <mxCell id="RI50vxsG2orb1oKf74Yb-55" value="Server Response" style="text;html=1;align=center;verticalAlign=middle;resizable=0;points=[];autosize=1;strokeColor=none;" vertex="1" parent="1">
          <mxGeometry x="423.5" y="590" width="110" height="20" as="geometry" />
        </mxCell>
        <mxCell id="RI50vxsG2orb1oKf74Yb-56" value="Static Data" style="text;html=1;align=center;verticalAlign=middle;resizable=0;points=[];autosize=1;strokeColor=none;" vertex="1" parent="1">
          <mxGeometry x="710" y="540" width="70" height="20" as="geometry" />
        </mxCell>
        <mxCell id="RI50vxsG2orb1oKf74Yb-57" value="Formate Data" style="text;html=1;align=center;verticalAlign=middle;resizable=0;points=[];autosize=1;strokeColor=none;" vertex="1" parent="1">
          <mxGeometry x="700" y="600" width="90" height="20" as="geometry" />
        </mxCell>
        <mxCell id="RI50vxsG2orb1oKf74Yb-58" value="Data Transmation" style="text;html=1;align=center;verticalAlign=middle;resizable=0;points=[];autosize=1;strokeColor=none;" vertex="1" parent="1">
          <mxGeometry x="433.5" y="320" width="110" height="20" as="geometry" />
        </mxCell>
        <mxCell id="RI50vxsG2orb1oKf74Yb-59" value="Data Storage" style="text;html=1;align=center;verticalAlign=middle;resizable=0;points=[];autosize=1;strokeColor=none;" vertex="1" parent="1">
          <mxGeometry x="700" y="320" width="90" height="20" as="geometry" />
        </mxCell>
        <mxCell id="RI50vxsG2orb1oKf74Yb-64" value="Paris&amp;nbsp;Server" style="rounded=0;whiteSpace=wrap;html=1;dashed=1;" vertex="1" parent="1">
          <mxGeometry x="550" y="390" width="120" height="60" as="geometry" />
        </mxCell>
        <mxCell id="RI50vxsG2orb1oKf74Yb-65" value="Sydney Server" style="rounded=0;whiteSpace=wrap;html=1;dashed=1;" vertex="1" parent="1">
          <mxGeometry x="550" y="660" width="120" height="60" as="geometry" />
        </mxCell>
        <mxCell id="RI50vxsG2orb1oKf74Yb-66" value="Bahrain&amp;nbsp;Server" style="rounded=0;whiteSpace=wrap;html=1;dashed=1;" vertex="1" parent="1">
          <mxGeometry x="550" y="730" width="120" height="60" as="geometry" />
        </mxCell>
        <mxCell id="RI50vxsG2orb1oKf74Yb-67" value="Virginia&amp;nbsp;Server" style="rounded=0;whiteSpace=wrap;html=1;dashed=1;" vertex="1" parent="1">
          <mxGeometry x="550" y="460" width="120" height="60" as="geometry" />
        </mxCell>
        <mxCell id="RI50vxsG2orb1oKf74Yb-68" value="Bombay Server" style="rounded=0;whiteSpace=wrap;html=1;dashed=1;" vertex="1" parent="1">
          <mxGeometry x="550" y="590" width="120" height="60" as="geometry" />
        </mxCell>
        <mxCell id="RI50vxsG2orb1oKf74Yb-69" value="Bombay&amp;nbsp;DB" style="rounded=0;whiteSpace=wrap;html=1;dashed=1;" vertex="1" parent="1">
          <mxGeometry x="811.5" y="590" width="120" height="60" as="geometry" />
        </mxCell>
        <mxCell id="RI50vxsG2orb1oKf74Yb-70" value="Paris&amp;nbsp;DB" style="rounded=0;whiteSpace=wrap;html=1;dashed=1;" vertex="1" parent="1">
          <mxGeometry x="811.5" y="390" width="120" height="60" as="geometry" />
        </mxCell>
        <mxCell id="RI50vxsG2orb1oKf74Yb-71" value="Virginia&amp;nbsp;DB" style="rounded=0;whiteSpace=wrap;html=1;dashed=1;" vertex="1" parent="1">
          <mxGeometry x="811.5" y="460" width="120" height="60" as="geometry" />
        </mxCell>
        <mxCell id="RI50vxsG2orb1oKf74Yb-72" value="Sydney&amp;nbsp;DB" style="rounded=0;whiteSpace=wrap;html=1;dashed=1;" vertex="1" parent="1">
          <mxGeometry x="811.5" y="660" width="120" height="60" as="geometry" />
        </mxCell>
        <mxCell id="RI50vxsG2orb1oKf74Yb-73" value="Bahrain&amp;nbsp;&amp;nbsp;DB" style="rounded=0;whiteSpace=wrap;html=1;dashed=1;" vertex="1" parent="1">
          <mxGeometry x="811.5" y="730" width="120" height="60" as="geometry" />
        </mxCell>
        <mxCell id="RI50vxsG2orb1oKf74Yb-76" style="edgeStyle=orthogonalEdgeStyle;rounded=0;orthogonalLoop=1;jettySize=auto;html=1;fontSize=16;" edge="1" parent="1" source="RI50vxsG2orb1oKf74Yb-74">
          <mxGeometry relative="1" as="geometry">
            <mxPoint x="280" y="622" as="targetPoint" />
            <Array as="points">
              <mxPoint x="280" y="622" />
            </Array>
          </mxGeometry>
        </mxCell>
        <mxCell id="RI50vxsG2orb1oKf74Yb-74" value="Administrator" style="rounded=0;whiteSpace=wrap;html=1;" vertex="1" parent="1">
          <mxGeometry x="110" y="592" width="100" height="60" as="geometry" />
        </mxCell>
      </root>
    </mxGraphModel>
  </diagram>
</mxfile>
